# xmcd
#
# Track frame offsets:
#	150
#	11149
#	27894
#	42056
#	57151
#	67419
#	78882
#	98052
#	113073
#	129227
#	149529
#	162451
#	178583
#	191801
#	206345
#
# Disc length: 2911 seconds
#
# Revision: 5
# Processed by: cddbd v1.5.2PL0 Copyright (c) Steve Scherf et al.
# Submitted via: audiograbber 1.83.01
#
DISCID=ce0b5d0f
DTITLE=Various  - Piano Blues and Boogie Woogie Classics
DYEAR=1997
DGENRE=Blues
TTITLE0=Big Joe Duskin - Dollar Bill Boogie
TTITLE1=Mercy Dee - Have You Ever Been Out In The Country
TTITLE2=Whistling Alex Moore - Whistling Alex Moore's Blues
TTITLE3=Johnny Young and Otis Spann - Moaning And Groaning
TTITLE4=Katie Webster - Katie's Boogie Woogie
TTITLE5=Thunder Smith - Cruel Hearted Woman
TTITLE6=Robert Shaw - The Ma Grinder
TTITLE7=Clifton Chenier and Elmore Nixon - Why Did You Go Last Night
TTITLE8=LC "Good Rockin'' Robinson and Pinetop Perkins  - Pinetop's Boogie Woogie
TTITLE9=Omar Sharriff - San Francisco Can Be Such A Lonely Town
TTITLE10=Pete Johnson - Rocket Boogie "88" (Part 1)
TTITLE11=Bukka White - Sugar Hill (Part 1)
TTITLE12=Piano Red - You Ain't Got A Chance
TTITLE13=Henry Gray - Cold Chills
TTITLE14=Charlie Musselwhite and Lafayette Leake - On The Spot Boogie
EXTD=American Masters Vol. 8 YEAR: 1997
EXTT0=Big Joe Duskin
EXTT1=Mercy Dee
EXTT2=Whistling Alex Moore
EXTT3=Johnny Young - Otis Spann
EXTT4=Katie Webster
EXTT5=Thunder Smith
EXTT6=Robert Shaw
EXTT7=Clifton Chenier - Elmore Nixon
EXTT8=L.C. "Good Rockin" Robinson - Pinetop Perkins
EXTT9=Omar Sharriff
EXTT10=Pete Johnson
EXTT11=Bukka White
EXTT12=Piano Red
EXTT13=Henry Gray
EXTT14=Charlie Musselwhite - Lafayette Leake
PLAYORDER=
